<svg id="Capa_2" data-name="Capa 2" xmlns="http://www.w3.org/2000/svg" viewBox="0 0 279.17 238.75"><title>Anagrama</title><path d="M180.67,13.92s54,18.5,51.25,59.25c-4.2,62.25-105.75,60.25-105.75,60.25s128.4,23.57,149.5-49.5C292.42,25.92,180.67,13.92,180.67,13.92Z" transform="translate(-15 -13.92)"/><polygon points="136 100.58 136.37 100.45 157.08 93.25 157.08 11.58 136 11.58 136 100.58"/><path d="M151,148.42l21.08,3.25,0.08,92.92h47s27.33,1.58,47.83-13.92c0,0,20.17-14.5,21.17-34.83,0,0.17,6,0,6,0v56.83H151V148.42Z" transform="translate(-15 -13.92)"/><polygon points="0 38.75 29.67 27.42 137.33 229.08 140.79 238.03 136 238.75 0 38.75"/></svg>